<svg version="1.1" id="Capa_1" xmlns="http://www.w3.org/2000/svg" xmlns:xlink="http://www.w3.org/1999/xlink" x="0px" y="0px"
	 width="512px" height="512px" viewBox="0 0 512 512" enable-background="new 0 0 512 512" xml:space="preserve">
<g>
	<path fill="#933EC5" d="M256,512C114.841,512,0.008,397.167,0.008,255.992C0.008,114.849,114.841,0,256,0
		s255.993,114.849,255.993,255.992C512.008,397.167,397.158,512,256,512z M256,29.26c-125.021,0-226.731,101.711-226.731,226.731
		c0,125.037,101.711,226.748,226.731,226.748c125.02,0,226.731-101.711,226.731-226.748C482.748,130.971,381.037,29.26,256,29.26z"
		/>
</g>
<path fill="#933EC5" d="M205.676,253.504c-10.599,7.703-16.932,20.137-16.932,33.25c0,10.955,4.279,21.279,12.043,29.041
	c8.5,8.5,20.252,12.848,32.257,11.912c12.006-0.934,22.953-7.057,30.058-16.826l107.983-149.285
	c3.298-4.567,2.791-10.899-1.2-14.912c-4.014-4.014-10.333-4.51-14.91-1.2L205.676,253.504z"/>
</svg>
