<?xml version="1.0" encoding="utf-8"?>
<!-- Generator: Adobe Illustrator 16.0.0, SVG Export Plug-In . SVG Version: 6.00 Build 0)  -->
<!DOCTYPE svg PUBLIC "-//W3C//DTD SVG 1.1//EN" "http://www.w3.org/Graphics/SVG/1.1/DTD/svg11.dtd">
<svg version="1.1" id="Capa_1" xmlns="http://www.w3.org/2000/svg" xmlns:xlink="http://www.w3.org/1999/xlink" x="0px" y="0px"
	 width="477.434px" height="477.434px" viewBox="0 0 477.434 477.434" enable-background="new 0 0 477.434 477.434"
	 xml:space="preserve">
<g>
	<g id="Layer_2_28_">
		<path d="M370.618,149.412l20.863-29.464c3.791-5.351,2.521-12.751-2.826-16.538l-31.463-22.281
			c-5.348-3.78-12.746-2.515-16.537,2.828l-21.377,30.198c-15.785-7.396-32.729-12.693-50.498-15.514V86.363
			c0-7.862,6.438-14.296,14.297-14.296h7.896c7.858,0,14.292-6.433,14.292-14.288v-43.48C305.264,6.441,298.831,0,290.971,0h-104.5
			c-7.87,0-14.295,6.441-14.295,14.299v43.479c0,7.855,6.425,14.288,14.295,14.288h7.887c7.866,0,14.296,6.434,14.296,14.296V98.64
			c-19.034,3.028-37.14,8.891-53.864,17.127L133.604,85.86c-3.789-5.35-11.188-6.608-16.536-2.828l-31.463,22.282
			c-5.347,3.788-6.612,11.188-2.824,16.542l21.361,30.169C69.557,186.538,48.13,234.24,48.13,286.852
			c0,105.084,85.498,190.582,190.59,190.582c105.087,0,190.583-85.498,190.583-190.582
			C429.305,232.896,406.768,184.117,370.618,149.412z M238.72,431.698c-79.871,0-144.85-64.982-144.85-144.847
			c0-79.871,64.979-144.85,144.85-144.85c79.866,0,144.845,64.979,144.845,144.85C383.562,366.715,318.586,431.698,238.72,431.698z"
			/>
	</g>
</g>
<path d="M201.862,294.245c0,18.421,14.95,33.366,33.368,33.366c12.94,0,24.024-7.443,29.579-18.19l0.082,0.082l60.914-109.9
	l-106.922,65.572l0.098,0.107C208.81,271.008,201.862,281.764,201.862,294.245z"/>
</svg>
